<?xml version="1.0" standalone="no"?>
<!DOCTYPE svg PUBLIC "-//W3C//DTD SVG 20010904//EN"
 "http://www.w3.org/TR/2001/REC-SVG-20010904/DTD/svg10.dtd">
<svg version="1.0" xmlns="http://www.w3.org/2000/svg"
 width="1030.000000pt" height="1030.000000pt" viewBox="0 0 1030.000000 1030.000000"
 preserveAspectRatio="xMidYMid meet">
<metadata>
Created by potrace 1.11, written by Peter Selinger 2001-2013
</metadata>
<g transform="translate(0.000000,1030.000000) scale(0.100000,-0.100000)"
fill="#000000" stroke="none">
<path d="M1450 8443 c-227 -22 -497 -112 -678 -225 -390 -243 -644 -606 -744
-1064 l-22 -99 -3 -2602 -3 -2603 5150 0 5150 0 -3 2603 -3 2602 -22 99 c-72
327 -220 602 -443 825 -223 224 -497 371 -825 443 l-99 22 -3710 2 c-2041 0
-3726 -1 -3745 -3z m543 -1126 c71 -32 141 -102 175 -175 23 -48 27 -71 27
-142 0 -104 -29 -174 -100 -245 -71 -71 -141 -100 -245 -100 -71 0 -94 5 -142
27 -73 34 -142 103 -176 176 -36 77 -38 202 -4 275 83 185 287 266 465 184z
m6600 0 c71 -32 141 -102 175 -175 22 -48 27 -71 27 -142 0 -104 -29 -174
-100 -245 -71 -71 -141 -100 -245 -100 -71 0 -94 5 -142 27 -72 34 -142 103
-176 176 -36 77 -38 202 -5 275 85 185 288 266 466 184z m1507 -4157 l0 -1090
-4940 0 -4940 0 0 1090 0 1090 4940 0 4940 0 0 -1090z"/>
<path d="M7397 3823 c-4 -3 -7 -278 -7 -610 l0 -603 266 0 c299 0 365 9 455
63 104 62 155 168 147 301 -8 128 -73 221 -183 267 -54 22 -71 39 -40 39 24 0
87 35 111 62 46 50 58 88 58 183 0 100 -13 140 -62 196 -36 41 -116 82 -190
98 -57 12 -544 16 -555 4z m555 -150 c137 -63 128 -271 -15 -328 -31 -13 -85
-19 -209 -23 l-168 -5 0 192 0 193 173 -4 c151 -3 178 -6 219 -25z m-3 -494
c56 -16 116 -72 130 -124 14 -51 13 -141 -3 -183 -6 -18 -27 -49 -45 -68 -52
-52 -106 -64 -303 -64 l-168 0 0 231 0 232 173 -6 c94 -3 192 -11 216 -18z"/>
<path d="M5530 3660 l0 -130 -55 0 -55 0 0 -35 0 -35 54 0 55 0 3 -332 3 -333
27 -55 c47 -94 122 -131 266 -134 l87 -1 3 33 3 32 -83 0 c-105 0 -155 21
-195 81 l-28 42 -3 334 -3 333 155 0 156 0 0 35 0 35 -155 0 -155 0 0 130 0
130 -40 0 -40 0 0 -130z"/>
<path d="M9577 3783 c-4 -3 -7 -64 -7 -135 l0 -128 -55 0 -55 0 0 -55 0 -55
54 0 54 0 4 -307 c5 -345 11 -377 74 -432 51 -45 118 -61 261 -61 l123 0 0 60
0 60 -107 0 c-130 0 -171 15 -190 70 -8 24 -12 127 -12 323 l-1 287 155 0 155
0 0 55 0 54 -152 3 -153 3 -3 133 -3 132 -68 0 c-37 0 -71 -3 -74 -7z"/>
<path d="M6266 3534 c-174 -56 -268 -222 -268 -474 0 -170 42 -292 129 -382
71 -73 126 -93 253 -93 91 0 111 3 155 25 61 30 128 97 160 159 46 93 59 157
59 296 0 136 -13 204 -56 289 -30 60 -105 133 -164 162 -69 34 -194 42 -268
18z m229 -78 c86 -39 152 -137 175 -256 13 -68 13 -202 0 -271 -23 -124 -110
-241 -198 -267 -55 -17 -140 -15 -195 4 -61 21 -138 104 -166 179 -46 123 -46
319 1 443 25 68 114 162 168 179 64 20 160 15 215 -11z"/>
<path d="M8792 3535 c-80 -18 -135 -50 -194 -113 -57 -61 -74 -93 -99 -189
-36 -143 -21 -319 38 -439 31 -64 115 -147 175 -174 63 -27 176 -40 255 -29
168 24 277 122 329 294 25 83 25 277 0 360 -58 190 -178 288 -371 300 -42 3
-96 -1 -133 -10z m240 -150 c53 -38 103 -119 119 -194 6 -32 9 -101 7 -162 -4
-96 -8 -114 -37 -173 -51 -104 -118 -146 -232 -146 -135 1 -223 98 -251 275
-21 137 11 278 83 360 51 58 99 76 191 73 66 -3 82 -7 120 -33z"/>
</g>
</svg>
